<?xml version="1.0" encoding="UTF-8" standalone="no"?>
<!DOCTYPE svg PUBLIC "-//W3C//DTD SVG 1.1//EN" "http://www.w3.org/Graphics/SVG/1.1/DTD/svg11.dtd">
<svg xmlns="http://www.w3.org/2000/svg" version="1.1" viewBox="0.00 0.00 500.00 500.00">
<path fill="#ffffff" d="
  M 185.53 292.05
  Q 175.40 301.54 165.71 312.05
  A 0.76 0.76 0.0 0 0 165.77 313.14
  Q 169.15 316.11 172.33 319.29
  Q 181.36 328.33 190.51 337.51
  C 192.65 339.66 195.09 341.46 196.79 344.00
  A 1.14 1.14 0.0 0 1 196.72 345.37
  Q 192.24 350.68 186.20 355.90
  A 0.84 0.84 0.0 0 1 185.07 355.87
  Q 181.80 352.74 178.57 349.43
  Q 160.60 331.02 142.15 313.29
  Q 141.38 312.55 142.08 311.84
  L 185.11 268.78
  Q 185.84 268.05 186.56 268.78
  L 216.54 299.37
  A 1.90 1.90 0.0 0 0 219.24 299.38
  L 238.35 280.43
  Q 238.83 279.95 238.35 279.47
  Q 224.00 265.16 209.88 251.12
  Q 208.89 250.14 206.42 248.28
  Q 205.99 247.96 206.37 247.59
  L 270.73 183.22
  A 0.28 0.28 0.0 0 0 270.73 182.82
  L 251.95 163.70
  Q 251.00 162.73 249.88 163.48
  Q 248.62 164.32 247.50 165.43
  Q 233.93 178.85 220.58 192.83
  Q 219.89 193.56 219.17 194.20
  Q 217.97 195.27 216.88 194.08
  Q 212.22 189.00 207.85 184.61
  Q 197.38 174.11 186.55 163.52
  Q 185.66 162.65 184.77 163.53
  L 166.43 181.88
  A 1.42 1.42 0.0 0 0 166.43 183.88
  Q 177.83 195.44 193.61 211.10
  Q 195.06 212.54 196.90 214.82
  A 0.77 0.76 -46.1 0 1 196.91 215.76
  Q 192.23 221.84 186.62 226.69
  Q 186.21 227.04 185.78 226.72
  Q 184.02 225.43 182.40 223.77
  Q 162.34 203.26 142.10 183.56
  Q 141.55 183.02 142.10 182.46
  Q 162.52 162.21 182.21 142.39
  Q 183.65 140.94 185.37 139.57
  Q 185.76 139.26 186.17 139.55
  Q 187.64 140.58 189.02 141.94
  Q 202.21 154.89 213.29 166.33
  Q 215.29 168.39 217.35 170.90
  Q 217.97 171.65 218.62 170.93
  Q 227.78 160.80 238.53 151.05
  A 0.65 0.64 -43.8 0 0 238.55 150.11
  L 206.57 118.84
  Q 206.13 118.41 206.56 117.97
  L 249.89 74.55
  Q 250.34 74.10 250.79 74.55
  L 293.72 117.45
  A 1.23 1.23 0.0 0 1 293.72 119.19
  L 262.94 150.20
  A 0.76 0.75 48.0 0 0 262.89 151.21
  Q 263.83 152.36 265.10 153.63
  Q 289.61 178.12 314.18 202.99
  Q 314.87 203.69 315.58 203.00
  L 335.15 183.69
  A 0.91 0.91 0.0 0 0 335.15 182.39
  L 304.27 151.75
  A 1.31 1.30 -47.0 0 1 304.21 149.97
  Q 309.11 144.31 314.51 139.77
  Q 315.36 139.06 316.14 139.84
  L 358.45 182.12
  A 1.16 1.15 45.0 0 1 358.46 183.75
  L 316.46 225.87
  Q 315.49 226.83 314.36 226.08
  C 313.36 225.42 312.22 224.70 311.41 223.81
  Q 300.22 211.58 287.20 199.32
  Q 285.25 197.48 283.40 195.21
  A 0.81 0.81 0.0 0 0 282.20 195.14
  Q 273.99 203.21 266.50 211.00
  Q 264.57 213.00 262.81 215.23
  A 0.73 0.72 -50.8 0 0 262.91 216.23
  Q 265.93 218.81 268.47 221.30
  Q 280.93 233.55 293.93 246.78
  A 1.18 1.18 0.0 0 1 293.92 248.45
  L 230.52 311.64
  A 0.89 0.89 0.0 0 0 230.51 312.89
  L 249.70 332.40
  Q 250.41 333.13 251.11 332.39
  Q 267.17 315.60 282.07 301.13
  A 1.08 1.08 0.0 0 1 283.58 301.15
  L 314.39 332.06
  Q 314.75 332.42 315.16 332.11
  Q 317.01 330.69 318.63 329.09
  Q 327.24 320.57 335.09 313.13
  A 1.00 0.99 45.8 0 0 335.10 311.70
  L 303.50 280.43
  Q 303.14 280.08 303.48 279.71
  Q 309.03 273.71 315.28 268.38
  Q 315.64 268.07 316.00 268.39
  C 318.47 270.66 320.41 273.26 322.78 275.63
  Q 340.13 292.98 358.75 311.61
  A 0.89 0.89 0.0 0 1 358.74 312.88
  Q 336.19 334.57 316.70 355.28
  Q 315.68 356.36 314.52 355.43
  Q 313.13 354.32 311.82 353.01
  C 302.55 343.74 292.53 334.43 283.58 324.61
  A 0.91 0.91 0.0 0 0 282.26 324.59
  Q 274.45 332.60 266.30 340.80
  Q 264.58 342.53 263.01 344.55
  Q 262.71 344.94 263.02 345.31
  Q 264.61 347.17 266.21 348.77
  Q 276.61 359.15 288.00 370.16
  Q 291.07 373.13 293.90 376.72
  A 0.77 0.77 0.0 0 1 293.82 377.75
  Q 276.48 394.22 262.05 409.53
  Q 256.66 415.24 251.36 420.63
  Q 250.62 421.39 249.86 420.64
  L 206.53 377.35
  Q 206.04 376.85 206.54 376.37
  L 238.62 344.85
  A 0.27 0.27 0.0 0 0 238.62 344.47
  Q 213.19 319.16 187.81 293.89
  Q 186.98 293.06 186.29 292.12
  Q 185.95 291.66 185.53 292.05
  Z
  M 230.88 117.44
  A 1.06 1.06 0.0 0 0 230.87 118.91
  L 249.22 138.20
  A 1.06 1.06 0.0 0 0 250.74 138.22
  L 270.09 118.88
  A 1.06 1.06 0.0 0 0 270.09 117.38
  L 251.18 98.43
  A 1.06 1.06 0.0 0 0 249.68 98.43
  L 230.88 117.44
  Z
  M 250.5962 227.3101
  A 0.26 0.26 0.0 0 0 250.2285 227.3075
  L 230.0924 247.1644
  A 0.26 0.26 0.0 0 0 230.0899 247.5321
  L 250.2838 268.0099
  A 0.26 0.26 0.0 0 0 250.6515 268.0125
  L 270.7876 248.1556
  A 0.26 0.26 0.0 0 0 270.7901 247.7879
  L 250.5962 227.3101
  Z
  M 251.7074 357.5200
  A 1.57 1.57 0.0 0 0 249.4871 357.5045
  L 230.9887 375.7464
  A 1.57 1.57 0.0 0 0 230.9732 377.9667
  L 249.0326 396.2800
  A 1.57 1.57 0.0 0 0 251.2529 396.2955
  L 269.7513 378.0536
  A 1.57 1.57 0.0 0 0 269.7668 375.8333
  L 251.7074 357.5200
  Z"
/>
<path fill="#ffffff" d="
  M 76.10 247.22
  L 119.23 203.66
  A 0.71 0.71 0.0 0 1 120.23 203.65
  L 163.54 246.88
  A 0.71 0.71 0.0 0 1 163.54 247.88
  L 120.12 291.21
  A 0.71 0.71 0.0 0 1 119.12 291.21
  L 76.10 248.22
  A 0.71 0.71 0.0 0 1 76.10 247.22
  Z
  M 120.7120 228.2449
  A 1.35 1.35 0.0 0 0 118.8028 228.2416
  L 100.3151 246.6649
  A 1.35 1.35 0.0 0 0 100.3118 248.5740
  L 118.8480 267.1751
  A 1.35 1.35 0.0 0 0 120.7572 267.1784
  L 139.2449 248.7551
  A 1.35 1.35 0.0 0 0 139.2482 246.8460
  L 120.7120 228.2449
  Z"
/>
<path fill="#ffffff" d="
  M 381.3733 291.5577
  A 0.27 0.27 0.0 0 1 380.9915 291.5577
  L 337.2923 247.8585
  A 0.27 0.27 0.0 0 1 337.2923 247.4767
  L 380.9067 203.8623
  A 0.27 0.27 0.0 0 1 381.2885 203.8623
  L 424.9877 247.5615
  A 0.27 0.27 0.0 0 1 424.9877 247.9433
  L 381.3733 291.5577
  Z
  M 381.7618 227.6901
  A 0.78 0.78 0.0 0 0 380.6587 227.6844
  L 361.4813 246.6620
  A 0.78 0.78 0.0 0 0 361.4756 247.7650
  L 380.6782 267.1699
  A 0.78 0.78 0.0 0 0 381.7813 267.1756
  L 400.9587 248.1980
  A 0.78 0.78 0.0 0 0 400.9644 247.0950
  L 381.7618 227.6901
  Z"
/>
</svg>
